[IMG]http://www.shotpix.com/images/40639374660051535761.jpg[/IMG]

General
Complete name                            : Daddy Yankee - Limbo [Music Video] 1080p [Sbyky].mp4
Format                                   : MPEG-4
Format profile                           : Base Media / Version 2
Codec ID                                 : mp42
File size                                : 179 MiB
Duration                                 : 4mn 14s
Overall bit rate mode                    : Variable
Overall bit rate                         : 5 902 Kbps
Encoded date                             : UTC 2013-04-08 03:07:16
Tagged date                              : UTC 2013-04-08 03:07:16

Video
ID                                       : 1
Format                                   : AVC
Format/Info                              : Advanced Video Codec
Format profile                           : High@L4.0
Format settings, CABAC                   : Yes
Format settings, ReFrames                : 1 frame
Codec ID                                 : avc1
Codec ID/Info                            : Advanced Video Coding
Duration                                 : 4mn 14s
Bit rate                                 : 5 708 Kbps
Maximum bit rate                         : 11.8 Mbps
Width                                    : 1 920 pixels
Height                                   : 1 080 pixels
Display aspect ratio                     : 16:9
Frame rate mode                          : Constant
Frame rate                               : 23.976 fps
Color space                              : YUV
Chroma subsampling                       : 4:2:0
Bit depth                                : 8 bits
Scan type                                : Progressive
Bits/(Pixel*Frame)                       : 0.115
Stream size                              : 173 MiB (97%)
Tagged date                              : UTC 2013-04-08 03:09:39

Audio
ID                                       : 2
Format                                   : AAC
Format/Info                              : Advanced Audio Codec
Format profile                           : LC
Codec ID                                 : 40
Duration                                 : 4mn 14s
Bit rate mode                            : Variable
Bit rate                                 : 192 Kbps
Maximum bit rate                         : 201 Kbps
Channel(s)                               : 2 channels
Channel positions                        : Front: L R
Sampling rate                            : 44.1 KHz
Compression mode                         : Lossy
Stream size                              : 5.83 MiB (3%)
Title                                    : IsoMedia File Produced by Google, 5-11-2011
Encoded date                             : UTC 2013-04-08 03:09:01
Tagged date                              : UTC 2013-04-08 03:09:39

Shared By Sbyky
[IMG]http://www.shotpix.com/images/76014917432015785852.gif[/IMG]
[IMG]http://www.shotpix.com/images/54100788659511547411.gif[/IMG]